# xmcd
#
# Track frame offsets: 
#        150
#        11091
#        22916
#        36484
#        48183
#        61494
#        75976
#        87076
#        101537
#        114737
#        127444
#        140535
#        153628
#        164802
#        177453
#        189232
#        200556
#        212487
#        224409
#        236131
#
# Disc length: 3339 seconds
#
# Revision: 1
# Processed by: cddbd v1.5.2PL0 Copyright (c) Steve Scherf et al.
# Submitted via: ExactAudioCopy v1.0b3
#
DISCID=250d0914
DTITLE=Paul, Les and Mary Ford - Greatest Hits [Disc 1]
DYEAR=2006
DGENRE=Pop
TTITLE0=Back Rider
TTITLE1=I Just Want Your Stingaree
TTITLE2=Begin The Beguine
TTITLE3=Blue Skies
TTITLE4=It's Been A Long, Long Time
TTITLE5=Whose Dream Are You?
TTITLE6=Baby, What You Do To Me
TTITLE7=Everybody Knew But Me
TTITLE8=Song Of The Islands
TTITLE9=Aloha Oe
TTITLE10=Rumours Are Flying
TTITLE11=Steel Guitar Rag
TTITLE12=Guitar Boogie
TTITLE13=Lover
TTITLE14=Brazil
TTITLE15=Hip-Billy Boogie
TTITLE16=What Is This Thing Called Love?
TTITLE17=Goofus
TTITLE18=Nola
TTITLE19=Tennessee Waltz
EXTD=Disc ONE
EXTT0=
EXTT1=
EXTT2=
EXTT3=
EXTT4=
EXTT5=
EXTT6=
EXTT7=
EXTT8=
EXTT9=
EXTT10=
EXTT11=
EXTT12=
EXTT13=
EXTT14=
EXTT15=
EXTT16=
EXTT17=
EXTT18=
EXTT19=
PLAYORDER=
